{"title":"The Blacklist S03 720p BluRay HEVC 2CH x265","uid":15798369,"size":7691107338,"categoryP":"video","categoryS":"hd___tv_shows","magnet":"?xt=urn:btih:c4b2d02a5c392905d4d817df6ab47f4ecb3ad7e1&amp;dn=The+Blacklist+S03+720p+BluRay+HEVC+2CH+x265&amp;tr=udp%3A%2F%2Ftracker.leechers-paradise.org%3A6969&amp;tr=udp%3A%2F%2Fzer0day.ch%3A1337&amp;tr=udp%3A%2F%2Fopen.demonii.com%3A1337&amp;tr=udp%3A%2F%2Ftracker.coppersurfer.tk%3A6969&amp;tr=udp%3A%2F%2Fexodus.desync.com%3A6969","seeders":3,"leechers":5,"uploader":"nayhtut","files":46,"time":1473477079,"description":"[Screenshots Gallery Link]\r\n\r\n[http://postimg.org/gallery/19d7vz0w4]\r\n\r\n\r\nSource:  The Blacklist S03 1080p BluRay x264-ROVERS  (Size: 75.64 GB)\r\n\r\n\r\nContains:  The Blacklist Season Three - Episode 01 to 23\r\n\r\nFormat                                   : Matroska\r\nFormat version                           : Version 4 / Version 2\r\nFile size                                : 7.16 GiB\r\nDuration                                 : Various\r\nOverall bit rate                         : 1 053 Kbps\r\nWriting application                      : Lavf57.25.100\r\nWriting library                          : Lavf57.25.100\r\n\r\nVideo\r\n\r\nID                                       : 1\r\nFormat                                   : V_MPEGH/ISO/HEVC\r\nCodec ID                                 : V_MPEGH/ISO/HEVC\r\nDuration                                 : 43mn 6s\r\nBit rate                                 : 840 Kbps\r\nWidth                                    : 1 274 pixels\r\nHeight                                   : 720 pixels\r\nDisplay aspect ratio                     : 16:9\r\nFrame rate                               : 25.000 fps\r\nBits/(Pixel*Frame)                       : 0.037\r\nStream size                              : 259 MiB (80%)\r\nWriting library                          : Lavc57.48.101 libx265\r\nLanguage                                 : English\r\nDefault                                  : Yes\r\nForced                                   : No\r\nDURATION                                 : 00:43:06.571000000\r\n\r\nAudio\r\n\r\nID                                       : 2\r\nFormat                                   : AC-3\r\nFormat/Info                              : Audio Coding 3\r\nMode extension                           : CM (complete main)\r\nFormat settings, Endianness              : Big\r\nCodec ID                                 : A_AC3\r\nDuration                                 : 43mn 6s\r\nBit rate mode                            : Constant\r\nBit rate                                 : 192 Kbps\r\nChannel(s)                               : 2 channels\r\nChannel positions                        : Front: L R\r\nSampling rate                            : 48.0 KHz\r\nBit depth                                : 16 bits\r\nCompression mode                         : Lossy\r\nStream size                              : 59.2 MiB (18%)\r\nWriting library                          : Lavc57.24.102 ac3\r\nLanguage                                 : English\r\nDefault                                  : Yes\r\nForced                                   : No\r\nDURATION                                 : 00:43:06.687000000\r\n\r\nMenu\r\n\r\n00:00:00.000                             : :00:00:00.000\r\n00:03:51.440                             : :00:03:51.440\r\n00:08:02.357                             : :00:08:02.357\r\n00:18:17.930                             : :00:18:17.930\r\n00:24:18.165                             : :00:24:18.165\r\n00:29:19.591                             : :00:29:19.591\r\n00:34:51.339                             : :00:34:51.339\r\n00:42:29.005                             : :00:42:29.005","torrent":{"xt":"urn:btih:c4b2d02a5c392905d4d817df6ab47f4ecb3ad7e1","amp;dn":"The+Blacklist+S03+720p+BluRay+HEVC+2CH+x265","amp;tr":["udp%3A%2F%2Ftracker.leechers-paradise.org%3A6969","udp%3A%2F%2Fzer0day.ch%3A1337","udp%3A%2F%2Fopen.demonii.com%3A1337","udp%3A%2F%2Ftracker.coppersurfer.tk%3A6969","udp%3A%2F%2Fexodus.desync.com%3A6969"],"infoHash":"c4b2d02a5c392905d4d817df6ab47f4ecb3ad7e1","infoHashBuffer":{"type":"Buffer","data":[196,178,208,42,92,57,41,5,212,216,23,223,106,180,127,78,203,58,215,225]},"announce":[],"urlList":[]}}